<svg xmlns="http://www.w3.org/2000/svg" width="383.901" height="383.9" viewBox="0 0 383.901 383.9">
  <path id="_ionicons_svg_logo-linkedin" d="M417.2,64H96.8C79.3,64,64,76.6,64,93.9V415c0,17.4,15.3,32.9,32.8,32.9H417.1c17.6,0,30.8-15.6,30.8-32.9V93.9C448,76.6,434.7,64,417.2,64ZM183,384H128V213h55ZM157.4,187H157c-17.6,0-29-13.1-29-29.5,0-16.7,11.7-29.5,29.7-29.5s29,12.7,29.4,29.5C187.1,173.9,175.7,187,157.4,187ZM384,384H329V290.5c0-22.4-8-37.7-27.9-37.7-15.2,0-24.2,10.3-28.2,20.3-1.5,3.6-1.9,8.5-1.9,13.5V384H216V213h55v23.8c8-11.4,20.5-27.8,49.6-27.8,36.1,0,63.4,23.8,63.4,75.1Z" transform="translate(-64 -64)" fill="#fff"/>
</svg>
