<svg xmlns="http://www.w3.org/2000/svg" width="448" height="448" viewBox="0 0 448 448">
  <g id="Group_194" data-name="Group 194" transform="translate(382 -678)">
    <g id="_ionicons_svg_logo-codepen" transform="translate(-414 646)">
      <path id="Path_2" data-name="Path 2" d="M241.239,303.936c-15.322-10.357-30.742-20.569-46.062-30.93-2.03-1.373-3.43-1.472-5.5-.029L150.8,299.131C181.966,319.9,244,361.317,244,361.317V307.531c-.012-1.224-1.553-2.78-2.761-3.6Zm-46.147-63.27q23.181-15.24,46.109-30.86a7.558,7.558,0,0,0,2.8-5.334V152.766s-62.033,41.124-93.262,61.942c13.7,9.159,26.671,17.913,39.787,26.443,1.02.662,3.4.284,4.567-.485Zm74.746-31.312q23.714,16.058,47.628,31.816a4.3,4.3,0,0,0,3.838,0L361.055,214.7,268,152.484v53.35a4.828,4.828,0,0,0,1.838,3.52Zm-11.729,21.015c-1.21-.8-3.611-.528-4.743.168-4.817,2.962-9.463,6.2-14.164,9.355-8.248,5.53-25.356,17.023-25.356,17.023l38.842,25.865a6.189,6.189,0,0,0,6.26.111L297.962,256.9s-34.079-22.7-39.853-26.529ZM141,237.116v39.609l29.622-19.838Z" fill="#fff"/>
      <path id="Path_3" data-name="Path 3" d="M256,32C132.288,32,32,132.288,32,256S132.288,480,256,480,480,379.712,480,256,379.712,32,256,32ZM395,297.006c0,5.785-2.652,9.868-7.511,13.094q-61.709,40.959-123.278,82.179c-5.862,3.927-11.182,3.763-16.992-.128q-61.175-40.971-122.625-81.676c-5.11-3.389-7.594-7.557-7.594-13.73V217.016c0-6.141,2.521-10.332,7.624-13.716,40.906-27.13,81.939-54.363,122.724-81.676,5.818-3.9,11.094-4.007,16.938-.1q61.557,41.212,123.265,82.2c4.674,3.1,7.449,6.94,7.449,12.657Z" fill="#fff"/>
      <path id="Path_4" data-name="Path 4" d="M316.247,273.234q-22.584,15.328-45.386,30.332c-2.412,1.588-2.888,3.318-2.861,6.189V361.1l93.039-62-38.527-25.882c-2.345-1.6-3.93-1.567-6.265.019ZM370,276.676V237.06l-29.59,19.873Z" fill="#fff"/>
    </g>
  </g>
</svg>
