<svg xmlns="http://www.w3.org/2000/svg" width="448" height="448"><path d="M224 0C100.3 0 0 102.9 0 229.7c0 101.5 64.2 187.5 153.2 217.9a17.56 17.56 0 003.8.4c8.3 0 11.5-6.1 11.5-11.4 0-5.5-.2-19.9-.3-39.1a102.4 102.4 0 01-22.6 2.7c-43.1 0-52.9-33.5-52.9-33.5-10.2-26.5-24.9-33.6-24.9-33.6-19.5-13.7-.1-14.1 1.4-14.1h.1c22.5 2 34.3 23.8 34.3 23.8 11.2 19.6 26.2 25.1 39.6 25.1a62.953 62.953 0 0025.6-6c2-14.8 7.8-24.9 14.2-30.7-49.7-5.8-102-25.5-102-113.5 0-25.1 8.7-45.6 23-61.6-2.3-5.8-10-29.2 2.2-60.8a18.642 18.642 0 015-.5c8.1 0 26.4 3.1 56.6 24.1a208.214 208.214 0 01112.2 0c30.2-21 48.5-24.1 56.6-24.1a18.642 18.642 0 015 .5c12.2 31.6 4.5 55 2.2 60.8 14.3 16.1 23 36.6 23 61.6 0 88.2-52.4 107.6-102.3 113.3 8 7.1 15.2 21.1 15.2 42.5 0 30.7-.3 55.5-.3 63 0 5.4 3.1 11.5 11.4 11.5a19.352 19.352 0 004-.4C383.9 417.2 448 331.1 448 229.7 448 102.9 347.7 0 224 0z" fill="#fff"/></svg>