<svg xmlns="http://www.w3.org/2000/svg" width="471.9" height="384"><path d="M471.9 45.5a195.735 195.735 0 01-55.6 15.3 97.155 97.155 0 0042.6-53.6 192.377 192.377 0 01-61.5 23.5 96.788 96.788 0 00-167.5 66.2 94.785 94.785 0 002.5 22.1A274.373 274.373 0 0132.8 17.7a97.008 97.008 0 0030.1 129.4 94.561 94.561 0 01-44-12.1v1.2a96.9 96.9 0 0077.7 95 97.457 97.457 0 01-25.5 3.4 91.337 91.337 0 01-18.2-1.8 96.97 96.97 0 0090.5 67.3 194.112 194.112 0 01-120.3 41.5A196.25 196.25 0 010 340.2 270.619 270.619 0 00148.2 384c178.3 0 275.7-147.7 275.7-275.8 0-4.2-.1-8.4-.3-12.5a197.084 197.084 0 0048.3-50.2z" fill="#fff"/></svg>