<svg xmlns="http://www.w3.org/2000/svg" width="448" height="448"><g fill="#fff" data-name="Group 194"><path data-name="Path 2" d="M209.239 271.936c-15.322-10.357-30.742-20.569-46.062-30.93-2.03-1.373-3.43-1.472-5.5-.029L118.8 267.131c31.166 20.769 93.2 62.186 93.2 62.186v-53.786c-.012-1.224-1.553-2.78-2.761-3.6zm-46.147-63.27q23.181-15.24 46.109-30.86a7.558 7.558 0 002.8-5.334v-51.706s-62.033 41.124-93.262 61.942c13.7 9.159 26.671 17.913 39.787 26.443 1.02.662 3.4.284 4.567-.485zm74.746-31.312q23.714 16.058 47.628 31.816a4.3 4.3 0 003.838 0l39.751-26.47L236 120.484v53.35a4.828 4.828 0 001.838 3.52zm-11.729 21.015c-1.21-.8-3.611-.528-4.743.168-4.817 2.962-9.463 6.2-14.164 9.355-8.248 5.53-25.356 17.023-25.356 17.023l38.842 25.865a6.189 6.189 0 006.26.111l39.014-25.991s-34.079-22.7-39.853-26.529zM109 205.116v39.609l29.622-19.838z"/><path data-name="Path 3" d="M224 0C100.288 0 0 100.288 0 224s100.288 224 224 224 224-100.288 224-224S347.712 0 224 0zm139 265.006c0 5.785-2.652 9.868-7.511 13.094q-61.709 40.959-123.278 82.179c-5.862 3.927-11.182 3.763-16.992-.128q-61.175-40.971-122.625-81.676c-5.11-3.389-7.594-7.557-7.594-13.73v-79.729c0-6.141 2.521-10.332 7.624-13.716 40.906-27.13 81.939-54.363 122.724-81.676 5.818-3.9 11.094-4.007 16.938-.1q61.557 41.212 123.265 82.2c4.674 3.1 7.449 6.94 7.449 12.657z"/><path data-name="Path 4" d="M284.247 241.234q-22.584 15.328-45.386 30.332c-2.412 1.588-2.888 3.318-2.861 6.189V329.1l93.039-62-38.527-25.882c-2.345-1.6-3.93-1.567-6.265.019zM338 244.676V205.06l-29.59 19.873z"/></g></svg>